<?xml version="1.0" encoding="UTF-8" standalone="no"?>
<!DOCTYPE svg PUBLIC "-//W3C//DTD SVG 1.1//EN" "http://www.w3.org/Graphics/SVG/1.1/DTD/svg11.dtd">
<svg width="100%" height="100%" viewBox="0 0 1500 1500" version="1.1" xmlns="http://www.w3.org/2000/svg" xmlns:xlink="http://www.w3.org/1999/xlink" xml:space="preserve" xmlns:serif="http://www.serif.com/" style="fill-rule:evenodd;clip-rule:evenodd;stroke-linejoin:round;stroke-miterlimit:2;">
    <g id="Artboard1" transform="matrix(0.957243,0,0,1.172791,-625.07977,-193.510555)">
        <rect x="653" y="165" width="1567" height="1279" style="fill:none;"/>
        <g transform="matrix(3.37102,0,0,2.947991,-290.826445,-5.955369)">
            <path d="M512.149,228.491C511.586,236.374 507.967,229.992 506.994,229.031C496.841,219 491.248,211.013 487.897,213.991C449.606,248.028 444.296,247.668 447.855,250.106C503.359,288.133 504.646,286.069 560.206,323.937C590.698,344.72 597.88,346.365 595.367,350.423C584.267,368.357 582.288,370.857 584.617,373.389C593.97,383.557 593.815,385.799 596.236,384.057C612.102,372.647 613.28,367.377 618.263,369.955C623.48,372.653 623.151,373.039 682.497,405.507C682.764,405.653 688.178,408.615 686.304,405.568C678.766,393.312 661.376,368.873 659.139,365.73C652.132,355.883 599.551,279.117 599.098,277.643C598.611,276.055 598.969,274.226 608.061,260.181C611.541,254.806 613.186,260.455 625.932,279.189C632.624,289.024 673.699,349.392 710.087,401.781C711.665,404.053 729.288,429.424 729.329,430.514C729.518,435.48 720.182,429.221 687.494,432.401C674.038,433.71 674.121,431.527 518.497,432.091C478.42,432.236 478.496,431.178 438.457,431.797C431.224,431.909 439.48,428.734 464.584,411.615C472.49,406.223 511.586,413.277 511.692,407.516C512.07,386.902 507.228,384.174 516.786,377.917C530.448,368.973 552.088,356 550.068,353.899C549.453,353.259 539.538,346.916 538.612,346.324C533.613,343.126 532.039,348.165 500.498,367.497C473.647,383.955 441.322,405.741 436.242,409.165C429.776,413.523 404.561,429.15 396.341,435.203C391.526,438.749 396.591,430.79 406.156,412.311C409.398,406.047 457.199,315.047 457.638,314.667C459.362,313.173 467.574,320.085 468.326,320.717C471.198,323.134 468.718,323.73 457.973,344.742C444.555,370.981 444.669,370.925 437.24,383.4C432.531,391.309 441.139,381.651 441.385,381.375C445.796,376.426 496.51,319.527 496.515,319.505C496.909,317.852 495.846,318.024 431.877,275.001C412.201,261.768 409.682,262.107 411.403,259.442C417.53,249.957 417.813,250.261 490.925,142.819C509.559,115.435 508.751,114.165 511.574,113.755C515.152,113.236 546.698,164.4 565.159,189.735C567.839,193.413 567.535,194.332 563.876,196.962C555.161,203.226 550.975,207.428 548.674,204.369C539.673,192.404 514.495,153.338 513.588,153.188C510.958,152.755 512.83,154.873 512.989,186.498C512.997,188.103 513.575,207.378 512.149,228.491Z" style="fill:rgb(26,27,22);"/>
        </g>
        <g transform="matrix(3.37102,0,0,2.947991,-290.826445,-5.955369)">
            <path d="M316.876,397.745C323.132,388.234 330.586,377.449 331.797,375.697C387.523,295.077 386.787,294.664 391.99,287.925C399.075,278.747 398.835,274.068 404.744,278.166C415.738,285.79 419.749,285.719 416.117,291.235C414.858,293.147 413.246,295.045 412.839,295.708C406.164,306.576 370.759,357.35 367.952,361.783C363.035,369.545 336.373,406.989 336.756,408.511C337.426,411.171 366.982,408.96 385.483,409.654C390.082,409.827 382.48,420.007 380.906,422.743C377.124,429.31 378.076,431.695 370.498,431.696C302.11,431.702 301.894,433.892 296.32,431.854C293.952,430.988 295.347,429.618 316.876,397.745Z" style="fill:rgb(24,25,21);"/>
        </g>
        <g transform="matrix(3.37102,0,0,2.947991,-290.826445,-5.955369)">
            <path d="M639.726,169.638C635.241,177.006 598.868,241.153 589.869,255.735C585.122,263.428 574.074,283.222 572.73,285.629C563.171,302.756 562.665,304.162 560.376,302.761C557.926,301.261 530.575,284.519 530.704,282.522C530.74,281.962 584.138,223.719 590.89,217.683C617.757,193.664 582.273,222.133 581.616,222.66C578.952,224.798 515.818,270.597 514.398,271.24C512.497,272.101 508.059,268.088 503.175,264.941C499.619,262.649 504.261,261.033 508.184,258.097C516.136,252.147 585.787,203.543 607.249,188.145C610.043,186.14 641.952,163.246 642.484,163.536C643.951,164.337 642.734,164.686 639.726,169.638Z" style="fill:rgb(23,24,20);"/>
        </g>
    </g>
</svg>
